<svg width="173" height="218" viewBox="0 0 173 218" fill="none" xmlns="http://www.w3.org/2000/svg">
<path d="M84.3952 0.0722554C87.8347 -0.151795 91.7055 0.18119 95.1237 0.578115C120.269 3.49831 139.366 15.3596 154.74 35.125C168.745 52.8982 175.005 75.5629 172.105 98.0049C166.8 139.847 120.201 192.061 87.8825 217.143C87.5823 217.29 87.3167 217.376 86.9782 217.393C84.5456 217.513 72.3769 206.484 70.0437 204.393C57.7847 193.309 46.502 181.19 36.321 168.172C19.2753 146.699 1.77273 119.962 0.134485 92C-1.59589 62.4649 13.504 32.2095 37.7995 15.5908C52.405 5.6001 66.8276 1.01108 84.3952 0.0722554ZM151.25 82.1435C148.948 46.2241 117.952 18.9795 82.0339 21.3057C46.1508 23.6295 18.9379 54.5893 21.237 90.4736C23.5364 126.358 54.478 153.592 90.364 151.317C126.285 149.04 153.551 118.063 151.25 82.1435Z" fill="#90CD67"/>
<path d="M86.674 29.0009C101.573 28.9052 115.876 34.8431 126.326 45.4628C135.501 54.7166 141.988 66.995 141.956 80.2392C136.742 81.0489 125.468 80.6733 120.06 80.456C118.088 74.1178 116.171 68.6836 111.786 63.5869C105.581 56.3734 98.0281 52.6873 88.6437 51.9423C87.5603 51.9131 86.4763 51.8989 85.3927 51.8984C73.1306 51.9483 62.0491 59.7379 56.7589 70.6318C55.8509 72.502 53.7703 78.7679 52.7619 79.371C49.35 81.4117 34.788 80.5429 31.0079 80.3779C30.7474 70.2679 37.4515 55.943 44.132 48.6035C56.0049 35.559 67.8093 30.2766 85.0382 29.0556C85.5987 28.9991 86.1127 28.9999 86.674 29.0009Z" fill="#218838"/>
<path d="M83.5341 62.0554C94.2951 61.3952 104.298 66.6299 107.971 77.5957C108.183 78.2269 108.25 79.1052 107.893 79.6947C105.655 80.9197 92.5904 80.4554 89.3421 80.4387C85.8614 80.4067 66.2419 80.8059 64.2314 79.7412C63.0669 77.5659 66.6046 72.2472 68.0714 70.5309C72.3084 65.5732 77.0034 62.7014 83.5341 62.0554Z" fill="#218838"/>
<path d="M86.673 141.734C101.572 141.83 115.875 135.892 126.325 125.272C135.5 116.019 141.988 103.74 141.956 90.4959C136.742 89.6861 125.468 90.0618 120.06 90.2791C118.088 96.6173 116.171 102.052 111.786 107.148C105.581 114.362 98.0281 118.047 88.6437 118.792C87.5602 118.821 86.4764 118.836 85.3927 118.837C73.1305 118.787 62.0482 110.997 56.7579 100.103C55.8499 98.233 53.7703 91.9661 52.7619 91.3631C49.3499 89.3223 34.7865 90.1922 31.007 90.3572C30.7465 100.467 37.4506 114.792 44.131 122.132C56.004 135.176 67.8092 140.457 85.0382 141.678C85.5985 141.735 86.112 141.735 86.673 141.734Z" fill="#218838"/>
<path d="M83.5341 108.483C94.2951 109.143 104.298 103.909 107.971 92.943C108.183 92.3117 108.25 91.4335 107.893 90.844C105.655 89.619 92.5904 90.0832 89.3421 90.1C85.8614 90.132 66.2419 89.7327 64.2314 90.7975C63.0669 92.9727 66.6046 98.2915 68.0714 100.008C72.3084 104.965 77.0034 107.837 83.5341 108.483Z" fill="#218838"/>
</svg>
